<?xml version="1.0" encoding="utf-8"?>
<!-- Generator: Adobe Illustrator 16.0.0, SVG Export Plug-In . SVG Version: 6.00 Build 0)  -->
<!DOCTYPE svg PUBLIC "-//W3C//DTD SVG 1.1//EN" "http://www.w3.org/Graphics/SVG/1.1/DTD/svg11.dtd">
<svg version="1.1" id="Layer_1" xmlns="http://www.w3.org/2000/svg" xmlns:xlink="http://www.w3.org/1999/xlink" x="0px" y="0px"
	 width="960px" height="560px" viewBox="0 0 960 560" enable-background="new 0 0 960 560" xml:space="preserve">
<path fill="#1890FF" d="M742.254,281.709c-12.095,76.901-35.625,99.38-77.296,151.042
	c-41.672,43.774-101.615,116.864-186.535,112.789c-76.901-12.094-99.38-35.625-151.042-77.296
	c-43.775-41.672-116.864-101.615-112.789-186.535c12.094-76.901,35.624-99.38,77.295-151.042
	C333.559,86.892,393.502,13.803,478.423,17.878c76.901,12.094,99.38,35.625,151.042,77.296
	C673.239,136.845,746.328,196.789,742.254,281.709z"/>
<g>
	<circle fill="#FFFFFF" cx="478.423" cy="281.314" r="32.995"/>
	<path fill="#FFFFFF" d="M643.925,248.451c-11.437-9.465-27.474-18.009-46.667-24.582c-3.812-1.314-7.756-2.629-11.83-3.681
		c0.657-2.761,1.314-5.521,1.84-8.15c9.202-44.432,2.629-79.005-16.958-90.31c-9.596-5.521-22.741-5.521-37.858,0
		c-13.935,5.127-29.315,14.854-44.563,28.132c-3.023,2.629-6.179,5.521-9.202,8.413c-2.104-1.972-4.075-3.813-6.179-5.653
		c-33.915-30.103-67.174-41.803-86.76-30.498c-9.596,5.521-16.169,16.958-18.93,32.864c-2.498,14.592-1.709,32.864,2.103,52.714
		c0.789,3.943,1.709,8.15,2.761,12.225c-4.732,1.314-9.333,2.761-13.671,4.338c-40.094,13.935-64.019,35.23-64.019,57.052
		c0,11.305,6.704,23.137,19.324,33.916c11.831,10.122,28.526,19.061,48.244,25.765c3.287,1.052,6.573,2.104,9.991,3.155
		c-1.052,4.47-2.104,8.808-2.892,13.146c-7.887,41.671-1.314,73.089,17.483,84c4.996,2.892,10.911,4.338,17.615,4.338
		c6.441,0,13.671-1.314,21.296-4.075c14.723-5.127,30.761-15.117,46.403-28.789c2.498-2.234,5.127-4.601,7.625-7.099
		c3.286,3.155,6.704,6.179,9.99,9.071c23.662,20.375,46.272,31.154,64.15,31.154c6.441,0,12.356-1.446,17.221-4.338
		c9.859-5.652,16.695-17.352,19.719-33.652c2.76-15.381,2.103-34.31-1.841-54.686c-0.657-3.286-1.314-6.573-2.234-9.859
		c2.366-0.657,4.601-1.446,6.835-2.104c43.117-14.197,69.803-37.201,69.803-59.813C662.854,270.272,656.281,258.835,643.925,248.451
		z M537.84,136.582c10.517-3.812,19.193-4.207,24.583-1.183c10.517,6.047,18.009,31.681,9.333,73.484
		c-0.525,2.366-1.052,4.864-1.709,7.23c-15.38-3.549-31.943-6.179-49.427-7.756c-10.122-14.46-20.639-27.474-31.155-38.779
		c2.761-2.761,5.652-5.258,8.413-7.756C511.943,149.859,525.746,141.052,537.84,136.582z M529.953,311.418
		c-5.784,9.99-11.699,19.587-17.615,28.525c-10.91,0.789-22.216,1.184-33.784,1.184c-11.567,0-22.741-0.395-33.39-1.052
		c-6.31-9.202-12.356-18.798-18.009-28.526c-5.653-9.859-10.911-19.85-15.775-29.709c4.732-9.99,9.991-19.98,15.644-29.708l0,0
		c5.652-9.859,11.699-19.455,17.878-28.526c11.042-0.789,22.216-1.314,33.521-1.314c11.437,0,22.61,0.395,33.652,1.314
		c6.047,9.071,12.094,18.535,17.746,28.395c5.784,10.122,11.174,19.981,15.906,29.578
		C540.995,291.437,535.737,301.428,529.953,311.418z M554.272,299.719c4.995,11.305,9.07,22.084,12.356,32.469
		c-10.647,2.498-22.216,4.47-34.441,5.916c3.813-6.047,7.625-12.357,11.306-18.799C547.437,312.732,550.986,306.159,554.272,299.719
		z M479.08,383.061c-7.493-8.019-14.986-16.957-22.216-26.554c6.967,0.263,14.196,0.395,21.559,0.395
		c7.493,0,14.985-0.132,22.347-0.525C493.54,366.104,486.31,375.042,479.08,383.061z M425.052,338.234
		c-12.094-1.314-23.53-3.154-33.916-5.521c3.286-10.517,7.23-21.428,11.962-32.47c3.286,6.31,6.836,12.751,10.517,19.061
		C417.164,325.878,420.977,332.188,425.052,338.234z M413.483,244.113c-3.681,6.31-7.099,12.751-10.517,19.061
		c-4.601-10.911-8.544-21.559-11.699-31.944c10.517-2.366,21.821-4.338,33.521-5.784
		C420.845,231.625,417.033,237.803,413.483,244.113z M478.686,180.883c7.23,7.887,14.46,16.563,21.69,26.159
		c-7.23-0.394-14.592-0.525-21.953-0.525c-7.23,0-14.46,0.131-21.559,0.525C463.963,197.578,471.324,188.77,478.686,180.883z
		 M543.493,243.981c-3.681-6.31-7.361-12.488-11.174-18.404c11.699,1.446,23.005,3.417,33.652,5.916
		c-3.155,10.253-7.099,20.901-11.831,31.812C550.854,256.864,547.305,250.422,543.493,243.981z M384.432,204.676
		c-3.549-17.878-4.207-34.179-1.972-46.93c1.84-11.042,5.916-18.798,11.305-21.953c10.516-6.047,36.414,0.263,68.357,28.657
		c1.841,1.578,3.681,3.287,5.521,5.127c-10.779,11.568-21.296,24.582-31.287,38.779c-17.352,1.577-33.915,4.207-49.295,7.625
		C386.009,212.169,385.221,208.488,384.432,204.676z M366.554,326.141c-39.042-13.276-56.789-32.601-56.789-44.826
		c0-11.699,16.563-29.314,53.502-42.197c4.075-1.446,8.282-2.76,12.62-3.943c4.601,15.117,10.648,30.76,18.009,46.666
		c-7.361,16.038-13.54,31.944-18.141,47.193C372.601,328.112,369.578,327.061,366.554,326.141z M403.756,429.859
		c-3.943,0-7.23-0.789-9.728-2.235c-10.122-5.783-17.089-28.92-9.859-67.305c0.789-3.943,1.709-8.019,2.629-12.226
		c14.986,3.286,31.68,5.784,49.69,7.23c10.254,14.328,20.901,27.605,31.681,39.174c-2.366,2.234-4.732,4.469-6.967,6.44
		C437.277,421.577,416.77,429.859,403.756,429.859z M573.07,356.244c8.019,40.488,0.263,65.465-10.254,71.512
		c-10.121,5.915-33.652,0.395-63.229-25.108c-3.023-2.629-6.179-5.521-9.333-8.413c10.385-11.305,20.77-24.45,30.892-39.305
		c17.878-1.577,34.704-4.207,49.953-7.756C571.756,350.329,572.413,353.353,573.07,356.244z M588.188,326.141
		c-1.972,0.657-4.075,1.314-6.178,1.972c-4.602-14.723-10.911-30.366-18.667-46.667c7.361-15.905,13.408-31.417,18.009-46.14
		c3.813,1.052,7.493,2.235,11.043,3.418c17.221,5.916,31.681,13.54,41.671,21.821c8.545,7.099,13.277,14.46,13.277,20.77
		C647.211,293.54,628.676,312.732,588.188,326.141z"/>
</g>
</svg>
